<?xml version="1.0" encoding="UTF-8"?>
<svg width="24px" height="16px" viewBox="0 0 24 16" version="1.1" xmlns="http://www.w3.org/2000/svg" xmlns:xlink="http://www.w3.org/1999/xlink">
    <title>Combined Shape</title>
    <g id="Page-1" stroke="none" stroke-width="1" fill="none" fill-rule="evenodd">
        <path d="M14.6020406,0 C15.1832242,0 15.6378674,0.445906425 15.6378674,1.01551849 L15.6378674,2.57592561 L17.3810573,2.57592561 C18.5430636,2.57592561 19.5536996,3.29409944 19.9325719,4.38392092 L20.9683987,7.43029948 L23.1663221,7.87602899 C23.6463275,7.97518811 24,8.39619418 24,8.86682404 L24,12.0866647 C24,12.6564537 23.5451764,13.1021832 22.9641732,13.1021832 L21.8525575,13.1021832 C21.8525575,14.7120372 20.5387929,16 18.8967902,16 C17.2547424,16 15.941023,14.6873138 15.941023,13.1021832 L8.058977,13.1021832 C8.058977,14.7120372 6.7200397,16 5.10320975,16 C3.46116195,16 2.1474425,14.6873138 2.1474425,13.1021832 L1.0358268,13.1021832 C0.454643198,13.1021832 0,12.6562768 0,12.0866647 L0,1.01551849 C0,0.445729513 0.454823648,0 1.0358268,0 Z M5.10320975,11.7644639 C4.3452756,11.7644639 3.7137014,12.3836556 3.7137014,13.1267297 C3.7137014,13.8698039 4.3452756,14.4889955 5.10320975,14.4889955 C5.88636176,14.4889955 6.4927181,13.8698039 6.4927181,13.1267297 C6.4927181,12.3836556 5.8611439,11.7644639 5.10320975,11.7644639 Z M18.8966549,11.7644197 C18.1387208,11.7644197 17.5071466,12.3836113 17.5071466,13.1266855 C17.5071466,13.8697597 18.1387208,14.4889513 18.8966549,14.4889513 C19.6545891,14.4889513 20.2861633,13.8697597 20.2861633,13.1266855 C20.2861633,12.3836113 19.6545891,11.7644197 18.8966549,11.7644197 Z M7.78103924,2.89772834 C5.88631664,2.89772834 4.3452756,4.4085559 4.3452756,6.26613077 C4.3452756,8.12370564 5.88631664,9.6345332 7.78103924,9.6345332 C9.70093458,9.6345332 11.2168029,8.12370564 11.2168029,6.26613077 C11.2168029,4.4085559 9.67576184,2.89772834 7.78103924,2.89772834 Z M8.5894903,4.9039092 C8.81699235,4.63145604 9.24642672,4.60675029 9.5495282,4.85432522 C9.80223006,5.10191341 9.85280562,5.49823143 9.60010376,5.77068459 L7.93270276,7.62825946 C7.80636085,7.77683892 7.62960128,7.85112864 7.42748852,7.85112864 C7.22537575,7.85112864 7.0486252,7.77683892 6.92227427,7.62825946 L6.01280742,6.63764132 C5.7602815,6.36519701 5.78548131,5.96902936 6.06338298,5.72128195 C6.34127563,5.47370702 6.74536582,5.49841277 6.99806768,5.77086593 L7.40213983,6.21659544 Z M17.3810122,4.11125547 L15.6378223,4.11125547 L15.6378223,7.18249015 L19.2503365,7.18231323 L18.4672296,4.87900885 C18.3156969,4.40841437 17.8862264,4.11125547 17.3810122,4.11125547 Z" id="Combined-Shape" fill="#FFFFFF" fill-rule="nonzero"></path>
    </g>
</svg>