<?xml version="1.0" encoding="UTF-8"?>
<svg width="24px" height="25.2px" viewBox="0 0 24 25.2" version="1.1" xmlns="http://www.w3.org/2000/svg" xmlns:xlink="http://www.w3.org/1999/xlink">
    <title>Combined Shape</title>
    <g id="Page-1" stroke="none" stroke-width="1" fill="none" fill-rule="evenodd">
        <path d="M16.0000397,3.31577389 C16.0000397,5.14714686 14.5077852,6.63154778 12.6667229,6.63154778 C10.8256606,6.63154778 9.33340608,5.14714686 9.33340608,3.31577389 C9.33340608,1.48440092 10.8256606,0 12.6667229,0 C14.5077852,0 16.0000397,1.48440092 16.0000397,3.31577389 M14.666713,23.2104172 C14.666713,24.3093002 13.7713007,25.2 12.6666038,25.2 C11.5619069,25.2 10.6664947,24.3093002 10.6664947,23.2104172 C10.6664947,22.1115343 11.5619069,21.2208345 12.6666038,21.2208345 C13.7713007,21.2208345 14.666713,22.1115343 14.666713,23.2104172 M20.7375162,6.2295102 C20.7375162,6.77882143 20.289697,7.22430158 19.7374616,7.22430158 C19.1852441,7.22430158 18.7374071,6.7788392 18.7374071,6.2295102 C18.7374071,5.68019897 19.1852263,5.23471882 19.7374616,5.23471882 C20.2896791,5.23471882 20.7375162,5.6801812 20.7375162,6.2295102 M7.92924638,20.2966809 C7.92924638,21.5784644 6.88454918,22.6176635 5.59598415,22.6176635 C4.30741911,22.6176635 3.26272191,21.5784644 3.26272191,20.2966809 C3.26272191,19.0148975 4.30741911,17.9756984 5.59598415,17.9756984 C6.88454918,17.9756984 7.92924638,19.0148975 7.92924638,20.2966809 M24,13.2630956 C24,13.9955855 23.4031577,14.5892867 22.6667923,14.5892867 C21.9304269,14.5892867 21.3335847,13.9955855 21.3335847,13.2630956 C21.3335847,12.5306056 21.9304269,11.9369044 22.6667923,11.9369044 C23.4031577,11.9369044 24,12.5306056 24,13.2630956 M5.33342593,13.2630956 C5.33342593,14.7280755 4.13944375,15.9157739 2.66671296,15.9157739 C1.19398217,15.9157739 0,14.7280755 0,13.2630956 C0,11.7981156 1.19398217,10.6104172 2.66671296,10.6104172 C4.13944375,10.6104172 5.33342593,11.7981156 5.33342593,13.2630956 M21.4041795,20.2966809 C21.4041795,21.2123674 20.6580523,21.9545679 19.7375211,21.9545679 C18.81699,21.9545679 18.0708627,21.2123674 18.0708627,20.2966809 C18.0708627,19.3809945 18.81699,18.638794 19.7375211,18.638794 C20.6580523,18.638794 21.4041795,19.3809945 21.4041795,20.2966809 M8.59590974,6.2295102 C8.59590974,7.87768667 7.25294021,9.21358828 5.59604367,9.21358828 C3.93914713,9.21358828 2.5961776,7.87768667 2.5961776,6.2295102 C2.5961776,4.58133373 3.93914713,3.24543212 5.59604367,3.24543212 C7.25294021,3.24543212 8.59590974,4.58133373 8.59590974,6.2295102" id="Combined-Shape" fill="#FFFFFF" fill-rule="nonzero"></path>
    </g>
</svg>