<?xml version="1.0" encoding="UTF-8"?>
<svg width="28.121071px" height="12.9526135px" viewBox="0 0 28.121071 12.9526135" version="1.1" xmlns="http://www.w3.org/2000/svg" xmlns:xlink="http://www.w3.org/1999/xlink">
    <title>Combined Shape</title>
    <g id="Page-1" stroke="none" stroke-width="1" fill="none" fill-rule="evenodd">
        <path d="M13.6955483,2.38840832 C13.8636263,2.02194551 14.3896995,2.01382467 14.5690321,2.37527741 L15.9244922,5.10810053 C15.9952756,5.25047184 16.133506,5.34878138 16.2931665,5.37003313 L19.2753856,5.76902929 C19.6644379,5.821399 19.8304205,6.2845967 19.5609832,6.56519043 L17.4095135,8.80594174 C17.3044801,8.91513966 17.2584614,9.0668349 17.2851592,9.21508011 L17.8438902,12.2946756 C17.9146646,12.6844452 17.4976757,12.9831781 17.1423514,12.7970976 L14.5031499,11.4150503 C14.3562997,11.3385113 14.1801281,11.3412758 14.0361018,11.4224798 L11.4416851,12.8885221 C11.0923276,13.0858373 10.6649878,12.7998961 10.7240039,12.4078619 L11.1882192,9.31477585 C11.2101755,9.16566813 11.1594149,9.01483098 11.0508656,8.90874693 L8.83302807,6.73987128 C8.55481364,6.46771686 8.70550825,6.00018892 9.09227639,5.9355716 L12.0639917,5.43934205 C12.2226001,5.41307758 12.3571389,5.31044799 12.423183,5.16652417 Z M21.9293573,0.302937782 C22.0780257,-0.0718197572 22.6029529,-0.107462015 22.8009567,0.244109819 L24.2975841,2.90224841 C24.3757216,3.04072008 24.5189077,3.13166047 24.6794617,3.14452711 L27.6784907,3.38684522 C28.0697507,3.41878174 28.2597297,3.87231326 28.0053648,4.16696823 L25.9742782,6.51691648 C25.8751037,6.63146178 25.8370872,6.78535755 25.871507,6.93200234 L26.5906459,9.97813567 C26.6817222,10.363667 26.2809393,10.683814 25.9163632,10.5165847 L23.2084478,9.27455664 C23.0577932,9.20580812 22.8820078,9.21778889 22.7424287,9.30641937 L20.7823263,10.553646 L20.2754022,8.40526028 L21.9293573,5.9355716 C22.2465936,5.56859722 22.5902915,4.66691894 21.5361162,4.31811715 L18.5494344,3.85804062 L20.4597101,3.4350794 C20.6167266,3.40055 20.7457098,3.29101984 20.804131,3.14383678 Z M6.19171372,0.302937782 L7.31694001,3.14383678 C7.37536122,3.29101984 7.50434442,3.40055 7.66136087,3.4350794 L9.57163662,3.85804062 L6.58495478,4.31811715 C5.53077951,4.66691894 5.8744774,5.56859722 6.19171372,5.9355716 L7.84566882,8.40526028 L7.33874466,10.553646 L5.37864232,9.30641937 C5.23906325,9.21778889 5.06327778,9.20580812 4.91262316,9.27455664 L2.20470781,10.5165847 C1.84013172,10.683814 1.43934877,10.363667 1.53042513,9.97813567 L2.24956402,6.93200234 C2.28398377,6.78535755 2.2459673,6.63146178 2.14679279,6.51691648 L0.115706199,4.16696823 C-0.138658668,3.87231326 0.0513202946,3.41878174 0.442580274,3.38684522 L3.44160931,3.14452711 C3.60216329,3.13166047 3.74534938,3.04072008 3.8234869,2.90224841 L5.32011429,0.244109819 C5.5181181,-0.107462015 6.04304532,-0.0718197572 6.19171372,0.302937782 Z" id="Combined-Shape" fill="#FFFFFF" fill-rule="nonzero"></path>
    </g>
</svg>