<?xml version="1.0" encoding="UTF-8"?><!DOCTYPE svg PUBLIC "-//W3C//DTD SVG 1.1//EN" "http://www.w3.org/Graphics/SVG/1.1/DTD/svg11.dtd"><svg xmlns="http://www.w3.org/2000/svg"><symbol id="icon-arrow-next" viewBox="0 0 22 16">
    <path d="M13.293 15.707a1 1 0 0 1-.083-1.32l.083-.094L18.585 9H1a1 1 0 0 1-.117-1.993L1 7h17.585l-5.292-5.293a1 1 0 0 1-.083-1.32l.083-.094a1 1 0 0 1 1.32-.083l.094.083 7 7 .073.082.007.008-.08-.09A1.008 1.008 0 0 1 22 7.98v.037c0 .024-.002.048-.004.071L22 8a1.008 1.008 0 0 1-.21.613 1.037 1.037 0 0 1-.083.094l-7 7a1 1 0 0 1-1.414 0z"/>
</symbol><symbol id="icon-arrow-prev" viewBox="0 0 22 16">
    <path d="M8.707.293a1 1 0 0 1 .083 1.32l-.083.094L3.415 7H21a1 1 0 0 1 .117 1.993L21 9H3.415l5.292 5.293a1 1 0 0 1 .083 1.32l-.083.094a1 1 0 0 1-1.32.083l-.094-.083-7-7-.073-.082a1.005 1.005 0 0 1-.007-.008l.08.09A1.008 1.008 0 0 1 0 8.02v-.037c0-.024.002-.048.004-.071L0 8a1.008 1.008 0 0 1 .21-.613c.028-.035.054-.066.083-.094l7-7a1 1 0 0 1 1.414 0z"/>
</symbol><symbol id="icon-facebook" viewBox="0 0 16 16">
    <path fill-rule="evenodd" clip-rule="evenodd" d="M16 8.048a8 8 0 1 0-9.25 7.9V10.36H4.719V8.048H6.75V6.285a2.822 2.822 0 0 1 3.02-3.112c.601.008 1.2.06 1.792.156v1.97h-1.008a1.155 1.155 0 0 0-1.3 1.25v1.5h2.219l-.355 2.313H9.25v5.59A8 8 0 0 0 16 8.049z"/>
</symbol><symbol id="icon-instagram" viewBox="0 0 16 16">
    <path fill-rule="evenodd" clip-rule="evenodd" d="M0 12c0 2.056 1.944 4 4 4h8c2.056 0 4-1.944 4-4V4c0-2.056-1.944-4-4-4H4C1.944 0 0 1.944 0 4v8zm2-8c0-.935 1.065-2 2-2h8c.935 0 2 1.065 2 2v8c0 .935-1.065 2-2 2H4c-.953 0-2-1.047-2-2V4zm11.105-.108a.96.96 0 1 1-1.92 0 .96.96 0 0 1 1.92 0zM8 12c-2.206 0-4-1.794-4-4s1.794-4 4-4 4 1.794 4 4-1.794 4-4 4zm0-6c-1.103 0-2 .897-2 2s.897 2 2 2 2-.897 2-2-.897-2-2-2z"/>
</symbol><symbol id="icon-linkedin" viewBox="0 0 16 16">
    <title>
        linkedin
    </title>
    <g fill-rule="nonzero">
        <path d="M15.996 16H16V10.13c0-2.87-.618-5.082-3.974-5.082-1.613 0-2.696.886-3.138 1.725h-.047V5.317H5.66V16h3.314V10.71c0-1.393.264-2.74 1.988-2.74 1.7 0 1.725 1.59 1.725 2.83V16h3.31z"/>
        <path d="M.264 5.318h3.317V16H.264z"/>
        <path d="M1.921 0C.861 0 0 .86 0 1.921s.86 1.94 1.921 1.94 1.922-.879 1.922-1.94C3.842.861 2.98 0 1.92 0z"/>
    </g>
</symbol><symbol id="icon-telegram" viewBox="0 0 16 14">
    <title>
        telegram
    </title>
    <path d="M6.278 9.227l-.264 3.909c.378 0 .542-.171.739-.376l1.775-1.782 3.68 2.829c.674.395 1.15.187 1.331-.652l2.415-11.88c.215-1.048-.36-1.457-1.018-1.2L.743 5.78C-.226 6.175-.211 6.742.578 7l3.629 1.185 8.429-5.538c.396-.276.757-.123.46.153L6.278 9.227z" fill-rule="nonzero"/>
</symbol><symbol id="icon-youtube" viewBox="0 0 16 12">
    <path fill-rule="evenodd" clip-rule="evenodd" d="M15.8 2.8C15.6 1.5 15 .6 13.6.4 11.4 0 8 0 8 0S4.6 0 2.4.4C1 .6.3 1.5.2 2.8 0 4.1 0 6 0 6s0 1.9.2 3.2c.2 1.3.8 2.2 2.2 2.4C4.6 12 8 12 8 12s3.4 0 5.6-.4c1.4-.3 2-1.1 2.2-2.4C16 7.9 16 6 16 6s0-1.9-.2-3.2zM6 9V3l5 3-5 3z"/>
</symbol></svg>