<?xml version="1.0" encoding="UTF-8"?>
<svg width="24.0000361px" height="16px" viewBox="0 0 24.0000361 16" version="1.1" xmlns="http://www.w3.org/2000/svg" xmlns:xlink="http://www.w3.org/1999/xlink">
    <title>Combined Shape</title>
    <g id="Page-1" stroke="none" stroke-width="1" fill="none" fill-rule="evenodd">
        <path d="M15.2156724,3.2688172 C15.2156724,5.07414235 13.7759752,6.53763441 12.0000028,6.53763441 C10.2240303,6.53763441 8.78433316,5.07414235 8.78433316,3.2688172 C8.78433316,1.46349206 10.2240303,1.33226763e-15 12.0000028,1.33226763e-15 C13.7759752,1.33226763e-15 15.2156724,1.46349206 15.2156724,3.2688172 M21.618804,4.01433692 C21.618804,5.36041987 20.5453022,6.45171531 19.2210548,6.45171531 C17.8968074,6.45171531 16.8235072,5.36047107 16.8235072,4.01433692 C16.8235072,2.66825397 17.8968578,1.57695853 19.2210548,1.57695853 C20.5452519,1.57695853 21.618804,2.66820276 21.618804,4.01433692 M12.0000028,7.25442908 C15.5824219,7.25442908 17.6979436,9.69180748 18.3749267,13.7920635 C18.6289465,15.3693804 15.5260067,16 12.0000028,16 C8.47404925,16 5.37121016,15.3691756 5.62507881,13.7920635 C6.30211225,9.66298003 8.41768436,7.25442908 12.0000028,7.25442908 Z M4.77880463,7.31182284 C5.79432962,7.31182284 6.66871572,7.57004096 7.37390642,8.08606759 C7.28929865,8.17207373 7.20469087,8.25807988 7.1200831,8.34408602 C5.9353471,9.60575525 5.14556878,11.3834818 4.80694124,13.6488172 C4.77880463,13.7062212 4.77880463,13.7922273 4.77880463,13.8782335 C2.15539448,13.8782335 -0.185883993,13.4194521 0.0116651086,12.215151 C0.519503156,9.11832565 2.09913033,7.31182284 4.77880463,7.31182284 Z M19.2211052,7.31172555 C21.9291382,7.31172555 23.5087402,9.146851 23.9882447,12.2150538 C24.1857581,13.4193651 21.8726318,13.8781925 19.2494231,13.8493907 C19.2494231,13.7919867 19.2212865,13.7059805 19.2212865,13.6199744 C18.854537,11.3547926 18.0647234,9.57686124 16.9081603,8.34398874 C16.795219,8.25798259 16.7106112,8.17197645 16.6260034,8.0859703 C17.3311941,7.56974398 18.1774733,7.31172555 19.2211052,7.31172555 Z M7.17649836,4.01433692 C7.17649836,5.36041987 6.10314774,6.45171531 4.77895071,6.45171531 C3.45475368,6.45171531 2.38120158,5.36047107 2.38120158,4.01433692 C2.38120158,2.66825397 3.45470331,1.57695853 4.77895071,1.57695853 C6.10319811,1.57695853 7.17649836,2.66820276 7.17649836,4.01433692" id="Combined-Shape" fill="#FFFFFF" fill-rule="nonzero"></path>
    </g>
</svg>